<svg width="57" height="56" viewBox="0 0 57 56" fill="none" xmlns="http://www.w3.org/2000/svg">
<path id="Image" d="M1.39697 16.8442C2.74542 8.75346 9.08549 2.41339 17.1762 1.06494L18.8645 0.783557C25.133 -0.261185 31.5311 -0.261186 37.7996 0.783556L39.4879 1.06494C47.5786 2.41339 53.9186 8.75346 55.2671 16.8442L55.5485 18.5325C56.5932 24.8009 56.5932 31.1991 55.5485 37.4675L55.2671 39.1558C53.9186 47.2465 47.5786 53.5866 39.4879 54.9351L37.7996 55.2164C31.5311 56.2612 25.133 56.2612 18.8645 55.2164L17.1762 54.9351C9.08549 53.5866 2.74542 47.2465 1.39697 39.1558L1.11559 37.4675C0.0708462 31.1991 0.0708452 24.8009 1.11559 18.5325L1.39697 16.8442Z" fill="#D5F379"/>
</svg>
