<svg width="112" height="112" viewBox="0 0 112 112" fill="none" xmlns="http://www.w3.org/2000/svg">
<g id="Highlight Effect Line 1" opacity="0.12">
<g id="Group">
<path id="Vector" d="M33.1836 87.6941C31.9889 89.7101 36.6929 92.3234 53.1942 98.8941C70.6662 105.838 74.7731 106.734 75.2958 103.971C75.9678 100.163 35.1996 84.4834 33.1836 87.6941Z" fill="white"/>
<path id="Vector_2" d="M57.5251 8.32341C51.2531 5.18737 49.9091 5.8593 38.9331 17.582C27.5837 29.678 25.9411 32.2916 28.0318 34.6061C31.8398 38.7875 35.8719 36.5476 50.6559 22.2861C61.5572 11.7581 62.1545 10.6381 57.5251 8.32341Z" fill="white"/>
<path id="Vector_3" d="M81.4181 47.2254C76.9381 44.9108 74.8475 44.9855 66.858 47.6735C43.1887 55.7375 25.6418 59.62 34.4525 63.9507C38.0365 65.7427 42.5913 64.6974 70.5913 56.1854C86.0475 51.4068 87.3915 50.3614 81.4181 47.2254Z" fill="white"/>
</g>
</g>
</svg>
