<svg width="143" height="74" viewBox="0 0 143 74" fill="none" xmlns="http://www.w3.org/2000/svg">
<g id="Logo">
<g id="Group">
<g id="Group_2">
<g id="Group_3">
<path id="Vector" d="M138.529 23.2978C138.178 21.0488 137.813 18.7245 137.563 16.1063C137.468 15.1004 136.708 14.3771 135.863 14.4901C135.018 14.6032 134.41 15.5111 134.505 16.5131C134.764 19.2594 135.138 21.6516 135.502 23.9646C136.066 27.5698 136.601 30.9754 136.585 35.1645C136.566 40.5289 136.189 46.6355 133.552 51.2315C131.082 55.5374 126.004 57.6131 121.299 57.6131C119.437 57.6131 117.633 57.2891 116.075 56.645C114.438 55.9706 113.137 54.8028 112.408 53.3562C112.168 52.8815 111.981 52.3654 111.835 51.7853C111.579 50.7606 111.487 49.6606 111.446 48.5003C112.871 49.8037 114.612 50.3387 116.252 49.9695C120.558 48.9938 123.173 44.0663 123.078 37.1083C122.986 30.399 120.264 22.778 115.4 21.8738C115.166 21.8286 113.064 21.5009 111.155 23.343C109.489 24.9516 108.565 27.6263 108.406 31.2956C108.362 32.3052 109.017 33.1679 109.866 33.2168C110.715 33.2696 111.44 32.4898 111.481 31.4802C111.588 28.9637 112.133 27.1441 113.057 26.2212C113.922 25.3547 114.903 25.4903 114.922 25.4903C117.595 25.9876 119.922 31.337 120.001 37.1686C120.026 39.0936 119.792 45.4413 115.676 46.3718C114.884 46.5527 113.976 46.2362 113.244 45.528C112.044 44.3677 111.335 42.2204 111.234 39.4553C111.231 39.3159 111.227 39.1727 111.224 39.0334C111.199 38.0275 110.49 37.2251 109.648 37.259C108.802 37.2816 108.131 38.1142 108.147 39.1238C108.15 39.2895 108.153 39.4515 108.159 39.6135C108.178 40.3104 108.197 41.0036 108.216 41.7005C108.254 43.0303 108.289 44.3602 108.318 45.69C108.327 46.0629 108.33 46.4397 108.334 46.8164C108.356 48.7866 108.381 50.8247 108.884 52.8363C108.884 52.8363 108.884 52.8363 108.884 52.8401C109.103 53.7178 109.391 54.5052 109.765 55.2436C110.863 57.4285 112.747 59.1577 115.068 60.1108C116.942 60.883 119.076 61.2748 121.277 61.2711C126.928 61.2711 133.001 58.683 136.091 53.2997C139.197 47.8862 139.637 41.1053 139.659 35.1833C139.681 30.6476 139.121 27.0801 138.529 23.2978Z" fill="#090129"/>
</g>
<g id="Group_4">
<path id="Vector_2" d="M125.053 37.7716C124.965 38.7774 125.579 39.6778 126.424 39.7833C126.478 39.7908 126.532 39.7946 126.586 39.7946C127.365 39.7946 128.033 39.0939 128.115 38.1558C129.388 23.6974 119.535 8.02589 119.114 7.36663C118.601 6.56045 117.635 6.40223 116.957 7.01251C116.28 7.6228 116.147 8.77179 116.66 9.57797C116.755 9.72489 126.199 24.7635 125.053 37.7716Z" fill="#090129"/>
</g>
<g id="Group_5">
<path id="Vector_3" d="M130.617 37.47C130.563 38.4796 131.206 39.3499 132.055 39.4139C132.086 39.4177 132.121 39.4177 132.153 39.4177C132.957 39.4177 133.635 38.6718 133.688 37.7036C134.265 26.8918 129.427 12.2487 129.221 11.6309C128.908 10.6891 128.012 10.2295 127.223 10.6062C126.432 10.9792 126.045 12.0453 126.359 12.9833C126.41 13.1265 131.149 27.487 130.617 37.47Z" fill="#090129"/>
</g>
</g>
<g id="Group_6">
<g id="Group_7">
<path id="Vector_4" d="M135.28 66.1988C134.631 65.4265 134.305 64.4922 134.305 63.3997C134.305 62.3073 134.631 61.373 135.28 60.6007C135.929 59.8285 136.714 59.4404 137.632 59.4404C138.55 59.4404 139.336 59.8285 139.985 60.6007C140.634 61.373 140.96 62.3073 140.96 63.3997C140.96 64.4922 140.634 65.4265 139.985 66.1988C139.336 66.971 138.55 67.3591 137.632 67.3591C136.714 67.3591 135.929 66.971 135.28 66.1988ZM135.638 61.0038C135.093 61.6593 134.821 62.4579 134.821 63.3997C134.821 64.3415 135.096 65.1402 135.644 65.7994C136.192 66.4587 136.857 66.7902 137.635 66.7902C138.414 66.7902 139.076 66.4587 139.627 65.7994C140.175 65.1402 140.45 64.3378 140.45 63.3997C140.45 62.4579 140.175 61.6593 139.627 61C139.079 60.3408 138.414 60.0093 137.635 60.0093C136.853 60.0093 136.189 60.3408 135.638 61.0038ZM138.443 63.5278L139.288 64.884C139.333 64.9707 139.352 65.0573 139.352 65.1364C139.352 65.2607 139.317 65.3662 139.247 65.4491C139.177 65.532 139.089 65.5734 138.984 65.5734C138.854 65.5734 138.747 65.4943 138.655 65.3323L137.515 63.2867C137.49 63.2415 137.477 63.2114 137.477 63.1888C137.477 63.1097 137.512 63.0682 137.578 63.0682H137.734C137.898 63.0682 138.034 63.023 138.142 62.9364C138.25 62.8497 138.304 62.7141 138.304 62.5333C138.304 62.1528 138.117 61.9644 137.743 61.9644H137.338V65.1251C137.338 65.2494 137.3 65.3549 137.227 65.4416C137.154 65.5282 137.066 65.5734 136.961 65.5734C136.857 65.5734 136.768 65.5282 136.695 65.4416C136.622 65.3549 136.584 65.2494 136.584 65.1251V61.6254C136.584 61.5312 136.613 61.4521 136.667 61.3843C136.72 61.3203 136.79 61.2863 136.869 61.2863H137.753C138.126 61.2863 138.43 61.3956 138.661 61.6141C138.896 61.8326 139.01 62.1377 139.01 62.5333C139.013 63.0381 138.823 63.3696 138.443 63.5278Z" fill="#090129"/>
</g>
</g>
<g id="Group_8">
<path id="Vector_5" d="M28.755 59.4104V53.688C28.755 52.9798 28.5714 52.3997 28.2009 51.9438C27.8305 51.488 27.3682 51.262 26.8142 51.262C26.2601 51.262 25.7978 51.488 25.4274 51.9438C25.057 52.3997 24.8733 52.9798 24.8733 53.688V59.4104C24.8733 59.757 24.772 60.0508 24.5662 60.2919C24.3604 60.5368 24.1135 60.6573 23.8253 60.6573C23.534 60.6573 23.2871 60.5368 23.0845 60.2919C22.8787 60.0471 22.7773 59.7532 22.7773 59.4104V50.3202C22.7773 49.9736 22.8787 49.6798 23.0845 49.4387C23.2903 49.1938 23.5372 49.0732 23.8253 49.0732C24.1166 49.0732 24.3636 49.1938 24.5662 49.4387C24.772 49.6835 24.8733 49.9774 24.8733 50.3202V50.3918C25.573 49.514 26.4374 49.0732 27.4664 49.0732C28.0458 49.0732 28.5904 49.2315 29.1001 49.5441C29.6067 49.8568 30.012 50.2976 30.3159 50.8627C31.1866 49.6685 32.2283 49.0732 33.444 49.0732C34.4192 49.0732 35.2297 49.4537 35.8693 50.2147C36.5089 50.9757 36.8286 51.9853 36.8286 53.2397V59.4104C36.8286 59.757 36.7273 60.0508 36.5215 60.2919C36.3157 60.5368 36.0688 60.6573 35.7807 60.6573C35.4894 60.6573 35.2424 60.5368 35.0398 60.2919C34.834 60.0471 34.7327 59.7532 34.7327 59.4104V53.688C34.7327 52.9798 34.549 52.3997 34.1786 51.9438C33.8082 51.488 33.3491 51.262 32.7918 51.262C32.2378 51.262 31.7755 51.488 31.4051 51.9438C31.0346 52.3997 30.851 52.9798 30.851 53.688V59.4104C30.851 59.757 30.7497 60.0508 30.5439 60.2919C30.3381 60.5368 30.0911 60.6573 29.803 60.6573C29.5117 60.6573 29.2648 60.5368 29.0621 60.2919C28.8563 60.0508 28.755 59.757 28.755 59.4104Z" fill="#090129"/>
<path id="Vector_6" d="M40.4698 58.9885C39.4947 57.8734 39.0039 56.5021 39.0039 54.8672C39.0039 53.236 39.4915 51.861 40.4698 50.7459C41.445 49.6308 42.6481 49.0732 44.0729 49.0732C45.4977 49.0732 46.6976 49.6308 47.6759 50.7459C48.6511 51.861 49.1419 53.236 49.1419 54.8672C49.1419 56.4984 48.6543 57.8734 47.6759 58.9885C46.7008 60.1036 45.4977 60.6611 44.0729 60.6611C42.6481 60.6611 41.445 60.1036 40.4698 58.9885ZM41.9547 52.3733C41.388 53.0326 41.1031 53.8651 41.1031 54.8709C41.1031 55.8768 41.388 56.7093 41.9547 57.3686C42.5215 58.0278 43.2275 58.3594 44.0729 58.3594C44.9182 58.3594 45.6243 58.0278 46.191 57.3686C46.7578 56.7093 47.0427 55.8768 47.0427 54.8709C47.0427 53.8651 46.7578 53.0326 46.191 52.3733C45.6243 51.714 44.9182 51.3863 44.0729 51.3863C43.2275 51.3825 42.5215 51.714 41.9547 52.3733Z" fill="#090129"/>
<path id="Vector_7" d="M57.3898 59.4104V53.688C57.3898 52.9798 57.2061 52.3997 56.8357 51.9438C56.4653 51.488 56.003 51.262 55.4489 51.262C54.8949 51.262 54.4326 51.488 54.0622 51.9438C53.6917 52.3997 53.5081 52.9798 53.5081 53.688V59.4104C53.5081 59.757 53.4068 60.0508 53.201 60.2919C52.9952 60.5368 52.7482 60.6573 52.4601 60.6573C52.1688 60.6573 51.9219 60.5368 51.7192 60.2919C51.5134 60.0471 51.4121 59.7532 51.4121 59.4104V50.3202C51.4121 49.9736 51.5134 49.6798 51.7192 49.4387C51.925 49.1938 52.172 49.0732 52.4601 49.0732C52.7514 49.0732 52.9983 49.1938 53.201 49.4387C53.4068 49.6835 53.5081 49.9774 53.5081 50.3202V50.3918C54.2078 49.514 55.0722 49.0732 56.1012 49.0732C56.6806 49.0732 57.2251 49.2315 57.7349 49.5441C58.2415 49.8568 58.6467 50.2976 58.9507 50.8627C59.8214 49.6685 60.863 49.0732 62.0788 49.0732C63.054 49.0732 63.8645 49.4537 64.5041 50.2147C65.1436 50.9757 65.4634 51.9853 65.4634 53.2397V59.4104C65.4634 59.757 65.3621 60.0508 65.1563 60.2919C64.9505 60.5368 64.7035 60.6573 64.4154 60.6573C64.1241 60.6573 63.8772 60.5368 63.6746 60.2919C63.4688 60.0471 63.3674 59.7532 63.3674 59.4104V53.688C63.3674 52.9798 63.1838 52.3997 62.8134 51.9438C62.4429 51.488 61.9838 51.262 61.4266 51.262C60.8725 51.262 60.4103 51.488 60.0398 51.9438C59.6694 52.3997 59.4858 52.9798 59.4858 53.688V59.4104C59.4858 59.757 59.3844 60.0508 59.1786 60.2919C58.9728 60.5368 58.7259 60.6573 58.4378 60.6573C58.1465 60.6573 57.8995 60.5368 57.6969 60.2919C57.4943 60.0508 57.3898 59.757 57.3898 59.4104Z" fill="#090129"/>
<path id="Vector_8" d="M70.9284 49.3557H72.4735C72.7363 49.3557 72.9642 49.4687 73.1574 49.6985C73.3473 49.9245 73.4455 50.1957 73.4455 50.5122C73.4455 50.8249 73.3505 51.0961 73.1574 51.3259C72.9674 51.5519 72.7394 51.6687 72.4735 51.6687H70.9284V59.4103C70.9284 59.7569 70.8271 60.0507 70.6213 60.2918C70.4155 60.5367 70.1685 60.6572 69.8804 60.6572C69.5891 60.6572 69.3422 60.5367 69.1395 60.2918C68.9338 60.0469 68.8324 59.7531 68.8324 59.4103V51.6649H68.0599C67.7971 51.6649 67.5691 51.5519 67.376 51.3221C67.186 51.0961 67.0879 50.8249 67.0879 50.5084C67.0879 50.1957 67.1829 49.9245 67.376 49.6947C67.566 49.4687 67.7939 49.3519 68.0599 49.3519H68.8324V47.2084C68.8324 46.8618 68.9338 46.5679 69.1395 46.3268C69.3453 46.082 69.5923 45.9614 69.8804 45.9614C70.1717 45.9614 70.4187 46.082 70.6213 46.3268C70.8271 46.5717 70.9284 46.8655 70.9284 47.2084V49.3557Z" fill="#090129"/>
<path id="Vector_9" d="M82.6424 50.9116V50.324C82.6424 49.9774 82.7437 49.6835 82.9495 49.4424C83.1553 49.1976 83.4023 49.077 83.6904 49.077C83.9817 49.077 84.2287 49.1976 84.4313 49.4424C84.6371 49.6873 84.7384 49.9811 84.7384 50.324V59.4104C84.7384 59.757 84.6371 60.0508 84.4313 60.2919C84.2255 60.5368 83.9785 60.6573 83.6904 60.6573C83.3991 60.6573 83.1522 60.5368 82.9495 60.2919C82.7437 60.0471 82.6424 59.7532 82.6424 59.4104V58.8227C81.8129 60.0471 80.6636 60.6611 79.1977 60.6611C77.8774 60.6611 76.7566 60.1036 75.8321 58.9885C74.9076 57.8734 74.4453 56.5021 74.4453 54.8672C74.4453 53.236 74.9076 51.861 75.8321 50.7459C76.7566 49.6308 77.8774 49.0732 79.1977 49.0732C80.6636 49.0732 81.8129 49.6873 82.6424 50.9116ZM81.6926 57.4326C82.2878 56.7244 82.5823 55.8692 82.5823 54.8672C82.5823 53.8613 82.2847 53.01 81.6926 52.313C81.0974 51.6161 80.385 51.2657 79.5554 51.2657C78.7259 51.2657 78.0104 51.6161 77.4183 52.313C76.8231 53.01 76.5286 53.8651 76.5286 54.8672C76.5286 55.873 76.8262 56.7244 77.4183 57.4213C78.0135 58.1183 78.7259 58.4686 79.5554 58.4686C80.3881 58.4686 81.1005 58.1258 81.6926 57.4326Z" fill="#090129"/>
<path id="Vector_10" d="M86.7012 59.9303C86.7012 59.8361 86.7265 59.7344 86.7803 59.6252L90.5797 51.6651H88.1069C87.8441 51.6651 87.6162 51.5521 87.4231 51.3223C87.2331 51.0963 87.1349 50.825 87.1349 50.5086C87.1349 50.1959 87.2299 49.9247 87.4231 49.6949C87.613 49.4688 87.841 49.3521 88.1069 49.3521H93.4292C93.5337 49.3521 93.6255 49.3973 93.7078 49.4952C93.787 49.5894 93.8281 49.6986 93.8281 49.8267C93.8281 49.9209 93.8091 50.0075 93.768 50.0867L89.8483 58.0693H93.3121C93.5749 58.0693 93.8028 58.1823 93.9959 58.4121C94.1859 58.6382 94.2841 58.9094 94.2841 59.2258C94.2841 59.5385 94.1891 59.8098 93.9959 60.0396C93.806 60.2656 93.578 60.3824 93.3121 60.3824H87.0969C86.831 60.3786 86.7012 60.2279 86.7012 59.9303Z" fill="#090129"/>
</g>
<g id="Group_9">
<path id="Vector_11" d="M60.5597 34.1514C60.5505 34.1587 60.5413 34.166 60.5352 34.1769C60.5444 34.166 60.5505 34.1587 60.5597 34.1514Z" fill="#090129"/>
<path id="Vector_12" d="M72.9954 35.8771C73.0017 35.8696 73.008 35.862 73.0144 35.8545C72.989 35.8771 72.951 35.9185 72.9004 35.9713C72.9036 35.9675 72.9067 35.9675 72.9099 35.9637C72.9415 35.9336 72.97 35.9072 72.9954 35.8771Z" fill="#090129"/>
<path id="Vector_13" d="M54.4013 35.4023C54.3886 35.3759 54.3759 35.3571 54.3633 35.3345C54.3728 35.3495 54.3791 35.3684 54.3886 35.3834C54.3918 35.391 54.3981 35.3947 54.4013 35.4023Z" fill="#090129"/>
<path id="Vector_14" d="M14.5462 25.5736C14.5019 24.5527 13.8243 23.5695 12.903 23.6185C12.0513 23.6637 11.2122 24.4811 11.2597 25.5736C11.3041 26.5983 11.3262 27.6267 11.3389 28.6552C11.3705 30.972 11.3484 33.2926 11.2376 35.6094C11.1742 36.9807 11.0761 38.3519 10.9305 39.7119C10.7563 41.1698 10.5252 42.6465 10.0788 44.0253C9.94579 44.3681 9.79698 44.6959 9.61967 45.0123C9.55952 45.0952 9.49936 45.1781 9.43287 45.2572C9.31573 45.4003 9.18591 45.5246 9.06244 45.6565C9.04027 45.6753 9.01811 45.6942 8.99594 45.713C8.90413 45.7846 8.80914 45.8562 8.71416 45.9202C8.60018 45.9993 8.4862 46.0671 8.36905 46.1349C8.0651 46.2705 7.75165 46.3723 7.43187 46.4401C7.0836 46.4777 6.73216 46.474 6.38072 46.4325C5.98495 46.3873 5.48787 46.6849 5.21875 47.0051C4.9338 47.3442 4.7185 47.9017 4.73749 48.3877C4.75649 48.8925 4.8958 49.4161 5.21875 49.7703C5.55752 50.1394 5.92479 50.2901 6.38072 50.3429C8.90729 50.6442 11.6365 49.0545 12.7953 46.3158C13.5204 44.6017 13.8591 42.703 14.0903 40.8157C14.5937 36.6981 14.6823 32.5241 14.619 28.3689C14.6063 27.4384 14.5873 26.5041 14.5462 25.5736Z" fill="#090129"/>
<path id="Vector_15" d="M100.751 28.7116C100.539 26.9561 99.7631 25.3965 98.5346 24.3869C97.322 23.3924 95.7927 23.3057 94.387 23.5619C92.9812 23.8218 91.5944 24.6092 90.4641 25.6225C89.3022 26.6623 88.327 27.8791 87.4088 29.2127C86.5603 30.4445 85.7529 31.7178 84.8158 32.8593C84.5846 33.1418 84.3472 33.4131 84.1034 33.673C83.9799 33.8049 83.8532 33.9329 83.7266 34.0573C83.6949 34.0874 83.6664 34.1175 83.6348 34.1439C83.6886 34.0949 83.7361 34.0497 83.7266 34.061C83.6981 34.1025 83.6506 34.1326 83.6094 34.1665C83.5873 34.1853 83.5683 34.2079 83.5461 34.2268C83.4765 34.2946 83.5366 34.2343 83.6094 34.1665C83.5999 34.174 83.5905 34.1816 83.5841 34.1853C83.2105 34.5093 82.8116 34.7881 82.4 35.0367C82.229 35.1384 82.0549 35.2326 81.8807 35.323C81.1842 35.6545 80.4623 35.9032 79.7246 36.0426C79.3415 36.0878 78.9552 36.0953 78.569 36.0501C78.379 36.0049 78.1954 35.9446 78.0117 35.8693C77.9199 35.8165 77.8313 35.7563 77.7458 35.6922C77.7236 35.6734 77.7014 35.6583 77.6793 35.6395C77.6413 35.5943 77.6065 35.5528 77.6001 35.5453C77.559 35.4963 77.5178 35.4436 77.4798 35.3908C77.502 35.4285 77.5241 35.4662 77.5495 35.5189C77.5241 35.47 77.4956 35.4248 77.4671 35.3795C77.4671 35.3795 77.4672 35.3758 77.464 35.3758C77.4482 35.3532 77.4292 35.3306 77.4133 35.308C77.3405 35.2063 77.2898 35.0669 77.4418 35.3268C77.3722 35.195 77.3088 35.0556 77.2519 34.9162C77.2487 34.9086 77.2487 34.9011 77.2455 34.8936C77.2455 34.8936 77.2455 34.8936 77.2455 34.8898C77.2867 34.7429 77.331 34.596 77.3658 34.4453C77.8059 32.5994 77.9136 30.599 77.6856 28.7041C77.4735 26.9486 76.6978 25.389 75.4693 24.3794C74.2567 23.3848 72.7274 23.2982 71.3217 23.5543C69.9159 23.8143 68.5292 24.6016 67.3988 25.615C66.2369 26.6547 65.2617 27.8715 64.3435 29.2051C63.495 30.437 62.6876 31.7103 61.7505 32.8518C61.5193 33.1343 61.2819 33.4055 61.0381 33.6655C60.9146 33.7973 60.788 33.9254 60.6613 34.0497C60.6328 34.0799 60.6012 34.1062 60.5695 34.1364C60.6233 34.0874 60.6708 34.0422 60.6613 34.0535C60.6328 34.0949 60.5853 34.1251 60.5442 34.159C60.522 34.1778 60.503 34.2004 60.4808 34.2193C60.4112 34.2871 60.4713 34.2268 60.5442 34.159C60.5347 34.1665 60.5252 34.174 60.5188 34.1778C60.1452 34.5018 59.7463 34.7806 59.3347 35.0292C59.1637 35.1309 58.9896 35.2251 58.8155 35.3155C58.1189 35.647 57.397 35.8956 56.6593 36.035C56.2762 36.0802 55.8899 36.0878 55.5037 36.0426C55.3137 35.9974 55.1301 35.9371 54.9464 35.8617C54.8546 35.809 54.766 35.7487 54.6805 35.6847C54.6583 35.6658 54.6362 35.6508 54.614 35.6319C54.576 35.5867 54.5412 35.5453 54.5348 35.5378C54.4937 35.4888 54.4525 35.4361 54.4145 35.3833C54.4367 35.421 54.4589 35.4587 54.4842 35.5114C54.4589 35.4624 54.4304 35.4172 54.4019 35.372C54.4019 35.372 54.4019 35.3682 54.3987 35.3682C54.3829 35.3456 54.3639 35.323 54.348 35.3004C54.2752 35.1987 54.2246 35.0593 54.3765 35.3193C54.3195 35.2138 54.2657 35.1045 54.2182 34.9915C54.1486 34.7617 54.0947 34.5244 54.0536 34.2833C54.0378 33.9631 54.0473 33.6466 54.0726 33.3264C54.1707 32.5956 54.3259 31.8798 54.4367 31.1528C54.6077 30.0414 54.6583 29.0281 54.5063 27.9092C54.481 27.7133 54.3955 27.5137 54.2815 27.3291C54.1834 27.1482 54.0568 26.9938 53.9016 26.8619C53.851 26.8167 53.8003 26.7753 53.7528 26.7414C53.4014 26.4965 52.8821 26.391 52.4863 26.5455C52.4357 26.5643 52.3882 26.5945 52.3375 26.6171C51.9924 26.7565 51.6853 27.0239 51.5048 27.4458C50.8906 28.8661 50.2574 30.2788 49.5292 31.6199C49.3392 31.9702 49.1429 32.3168 48.9403 32.6559C48.8453 32.8141 48.7503 32.9648 48.6522 33.1192C48.5983 33.1983 48.5445 33.2775 48.4907 33.3566C48.0696 33.9631 47.6137 34.5432 47.1071 35.0518C47.0596 35.1008 47.0026 35.1497 46.9519 35.1987C46.8158 35.3155 46.6765 35.4285 46.534 35.5302C46.3757 35.6432 46.2111 35.7487 46.0464 35.8429C45.4005 36.1254 44.7072 36.2724 44.0264 36.3891C42.3516 36.6491 40.6608 36.7508 38.9733 36.8111C37.0071 36.8826 35.0378 36.8826 33.0716 36.8525C29.9815 36.8035 26.8977 36.6152 23.8075 36.4645C23.5131 36.4494 23.2123 36.4494 22.9147 36.4306V36.4268H22.9052C22.8893 36.3477 22.8767 36.2686 22.864 36.1895C22.8165 35.7111 22.7848 35.2326 22.7658 34.7504C22.7469 34.2042 22.7437 33.6579 22.7468 33.1079C22.75 32.5617 22.7595 32.0154 22.769 31.4692C22.7722 31.3223 22.7722 31.1754 22.7753 31.0284C22.8165 27.3969 22.8862 23.7653 22.921 20.1337C22.9526 17.0183 22.9653 13.9028 22.9685 10.7836C22.9685 9.76268 22.2118 8.77944 21.3253 8.82842C20.4356 8.87739 19.682 9.68733 19.682 10.7836C19.682 14.9953 19.6535 19.207 19.5965 23.4225C19.5617 26.1047 19.5079 28.787 19.4826 31.4692C19.4699 32.9497 19.4382 34.4415 19.5522 35.9182C19.644 37.1237 19.8023 38.2727 20.4767 39.2258C21.0245 39.9981 21.8413 40.2279 22.6455 40.3146C23.4181 40.3974 24.2064 40.3974 24.9821 40.4426C27.3409 40.5858 29.7028 40.6837 32.0648 40.7365C34.794 40.7968 37.5264 40.8043 40.2524 40.6574C41.4207 40.5933 42.5858 40.5029 43.7478 40.3372C44.742 40.194 45.7615 40.0471 46.7208 39.6892C48.0823 39.1769 49.2537 38.1334 50.2257 36.909C50.498 36.57 50.7545 36.2121 51.0014 35.8504C51.2262 36.7207 51.603 37.5306 52.1349 38.2087C53.5375 39.9868 55.6715 40.1676 57.5743 39.8022C58.3405 39.6553 59.0877 39.3841 59.8033 39.0337C60.5822 38.6532 61.3484 38.2351 62.0417 37.6662C63.7325 36.2761 65.0084 34.4076 66.2875 32.5202C66.9619 31.5257 67.6458 30.5349 68.4278 29.6534C68.6273 29.4312 68.8299 29.2127 69.0421 29.0055C69.0706 28.9791 69.0991 28.9527 69.1244 28.9264C69.2225 28.8397 69.3239 28.7531 69.4252 28.6702C69.8304 28.3424 70.261 28.0561 70.7074 27.8113C71.1665 27.5965 71.6383 27.4345 72.1259 27.3366C72.3792 27.3102 72.6356 27.3065 72.8889 27.3253C73.0947 27.3705 73.2974 27.4345 73.4937 27.5212C73.5855 27.5777 73.6741 27.638 73.7596 27.7058C73.8166 27.7661 73.8768 27.8263 73.9306 27.8941C73.9717 27.9431 74.0066 27.9959 74.0446 28.0486C74.0541 28.0637 74.0604 28.0787 74.0699 28.0938C74.1459 28.2332 74.2124 28.3801 74.2725 28.5308C74.3612 28.8246 74.4277 29.126 74.4752 29.4349C74.5511 30.3014 74.5226 31.1829 74.4403 32.0456C74.3422 32.7953 74.1839 33.5336 73.9559 34.2456C73.8578 34.5018 73.7501 34.7504 73.6266 34.9915C73.5633 35.1121 73.4937 35.2289 73.4272 35.3494C73.3892 35.4021 73.348 35.4587 73.31 35.5114C73.2214 35.6282 73.1264 35.7374 73.0314 35.8429C73.1359 35.7412 73.0314 35.8693 72.9459 35.9371C72.9396 35.9409 72.9332 35.9446 72.9269 35.9522C72.8952 35.9823 72.8636 36.0124 72.8351 36.0463C72.8668 36.0124 72.8921 35.9861 72.9174 35.9597C72.7749 36.0765 72.623 36.1744 72.471 36.2648C72.2557 36.3552 72.0372 36.4268 71.8124 36.4758C71.6288 36.4909 71.4452 36.4909 71.2615 36.4758C71.0177 36.4231 70.7803 36.3477 70.5491 36.246C70.4352 36.1782 70.3212 36.1028 70.2135 36.02C70.1945 36.0049 70.166 35.9823 70.1344 35.9559C70.0837 35.9032 70.0236 35.8429 70.0014 35.8165C69.9286 35.7337 69.8589 35.647 69.7924 35.5604C69.7893 35.5566 69.7861 35.5528 69.7829 35.5491C69.6626 35.323 69.5518 35.1008 69.46 34.8559C69.3017 34.4377 68.8331 34.0761 68.4785 33.9593C68.0859 33.8312 67.5603 33.8877 67.212 34.1552C66.8606 34.4227 66.5535 34.8258 66.4585 35.323C66.354 35.8655 66.4332 36.3251 66.6231 36.8299C67.9308 40.292 71.9549 41.4183 74.548 39.3577C74.8741 39.0978 75.1717 38.8001 75.444 38.4799C75.4788 38.5138 75.5105 38.5553 75.5453 38.5892C76.2039 39.2145 76.9542 39.6779 77.7933 39.8474C79.37 40.1676 80.9847 39.8889 82.4791 39.2334C84.021 38.5553 85.3635 37.6135 86.5761 36.2874C87.8267 34.9199 88.8304 33.285 89.9069 31.7367C90.5021 30.8815 91.1259 30.049 91.8287 29.3106C91.9111 29.224 91.9965 29.1373 92.082 29.0507C92.1074 29.0243 92.1327 28.9979 92.1612 28.9753C92.3321 28.8246 92.5063 28.674 92.6868 28.5383C93.0509 28.2596 93.434 28.0222 93.8266 27.8075C94.2698 27.6041 94.7289 27.4496 95.1975 27.3517C95.4508 27.3253 95.7072 27.3215 95.9605 27.3404C96.1663 27.3856 96.369 27.4496 96.5653 27.5363C96.6571 27.5928 96.7457 27.653 96.8312 27.7209C96.8882 27.7811 96.9484 27.8414 97.0022 27.9092C97.0434 27.9582 97.0782 28.0109 97.1162 28.0637C97.1257 28.0787 97.132 28.0938 97.1415 28.1089C97.2175 28.2483 97.284 28.3952 97.3441 28.5459C97.4328 28.8397 97.4993 29.1411 97.5468 29.4462C97.6228 30.3127 97.5943 31.1942 97.5119 32.0569C97.4138 32.8066 97.2555 33.5449 97.0275 34.2569C96.9294 34.5131 96.8217 34.7617 96.6982 35.0028C96.6349 35.1234 96.5653 35.2402 96.4988 35.3607C96.4608 35.4134 96.4196 35.47 96.3816 35.5227C96.293 35.6395 96.198 35.7487 96.103 35.8542C96.2075 35.7525 96.103 35.8806 96.0175 35.9484C96.0112 35.9522 96.0049 35.9559 95.9985 35.9635C95.9669 35.9936 95.9352 36.0237 95.9067 36.0576C95.9384 36.0237 95.9637 35.9974 95.989 35.971C95.8466 36.0878 95.6946 36.1857 95.5426 36.2761C95.3273 36.3665 95.1088 36.4381 94.8841 36.4871C94.7004 36.5022 94.5168 36.5022 94.3332 36.4871C94.0894 36.4344 93.8519 36.359 93.6208 36.2573C93.5068 36.1895 93.3928 36.1141 93.2852 36.0313C93.2662 36.0162 93.2377 35.9936 93.206 35.9672C93.1553 35.9145 93.0952 35.8542 93.073 35.8278C93.0002 35.745 92.9305 35.6583 92.8641 35.5717C92.8609 35.5679 92.8577 35.5641 92.8546 35.5604C92.7342 35.3343 92.6234 35.1121 92.5316 34.8672C92.3733 34.4491 91.9047 34.0874 91.5501 33.9706C91.1575 33.8425 90.6319 33.899 90.2837 34.1665C89.9322 34.434 89.6251 34.8371 89.5301 35.3343C89.4256 35.8768 89.5048 36.3364 89.6948 36.8412C91.0024 40.3033 95.0265 41.4296 97.6196 39.369C99.0633 38.22 99.9752 36.4155 100.441 34.4528C100.871 32.6107 100.979 30.6103 100.751 28.7116ZM54.6298 35.6847C54.69 35.7374 54.7501 35.7864 54.7438 35.7902C54.7343 35.7977 54.6836 35.745 54.6298 35.6847ZM77.7046 35.6847C77.7648 35.7374 77.8249 35.7864 77.8186 35.7902C77.8091 35.7977 77.7553 35.745 77.7046 35.6847Z" fill="#090129"/>
<path id="Vector_16" d="M96.0715 35.8771C96.0779 35.8696 96.0842 35.862 96.0905 35.8545C96.0652 35.8771 96.0272 35.9185 95.9766 35.9713C95.9797 35.9675 95.9829 35.9675 95.9861 35.9637C96.0146 35.9336 96.0431 35.9072 96.0715 35.8771Z" fill="#090129"/>
<path id="Vector_17" d="M77.4735 35.4023C77.4609 35.3759 77.4482 35.3533 77.4355 35.3345C77.445 35.3495 77.4514 35.3684 77.4609 35.3834C77.4672 35.391 77.4704 35.3947 77.4735 35.4023Z" fill="#090129"/>
<path id="Vector_18" d="M83.63 34.1514C83.6208 34.1587 83.6147 34.166 83.6055 34.1732C83.6147 34.166 83.6239 34.1587 83.63 34.1514Z" fill="#090129"/>
<path id="Vector_19" d="M12.5775 20.013C13.8802 20.013 14.9363 18.7565 14.9363 17.2065C14.9363 15.6564 13.8802 14.3999 12.5775 14.3999C11.2748 14.3999 10.2188 15.6564 10.2188 17.2065C10.2188 18.7565 11.2748 20.013 12.5775 20.013Z" fill="#090129"/>
<path id="Vector_20" d="M33.0045 22.3864C33.2071 22.3864 33.4003 22.3525 33.5839 22.296L33.5934 22.3299C33.5934 22.3299 37.9595 21.9796 40.4988 22.3864V22.3789C40.5494 22.3826 40.5969 22.3864 40.6476 22.3864C41.6829 22.3864 42.5187 21.3881 42.5187 20.16C42.5187 18.9281 41.6797 17.9336 40.6476 17.9336C40.4893 17.9336 40.3341 17.96 40.1885 18.0052C39.302 18.0654 35.4931 18.2952 33.1597 17.9336V17.9411C33.109 17.9374 33.0552 17.9336 33.0045 17.9336C31.8679 17.9336 30.9434 18.9319 30.9434 20.16C30.9434 21.3919 31.8679 22.3864 33.0045 22.3864Z" fill="#090129"/>
</g>
</g>
</g>
</svg>
