<svg width="96" height="40" viewBox="0 0 96 40" fill="none" xmlns="http://www.w3.org/2000/svg">
<g id="Logo">
<g id="Group 1">
<g id="Group">
<path id="Vector" d="M20.1742 32.9411V29.9145C20.1742 29.5399 20.0574 29.233 19.8216 28.9919C19.5859 28.7508 19.2917 28.6313 18.9391 28.6313C18.5865 28.6313 18.2923 28.7508 18.0566 28.9919C17.8208 29.233 17.704 29.5399 17.704 29.9145V32.9411C17.704 33.1244 17.6395 33.2799 17.5085 33.4074C17.3776 33.5369 17.2204 33.6007 17.037 33.6007C16.8517 33.6007 16.6945 33.5369 16.5656 33.4074C16.4346 33.2779 16.3701 33.1224 16.3701 32.9411V28.1332C16.3701 27.9498 16.4346 27.7944 16.5656 27.6669C16.6965 27.5374 16.8537 27.4736 17.037 27.4736C17.2224 27.4736 17.3796 27.5374 17.5085 27.6669C17.6395 27.7964 17.704 27.9518 17.704 28.1332V28.171C18.1493 27.7068 18.6993 27.4736 19.3542 27.4736C19.7229 27.4736 20.0695 27.5573 20.3939 27.7227C20.7162 27.8881 20.9741 28.1212 21.1676 28.4201C21.7217 27.7885 22.3846 27.4736 23.1583 27.4736C23.7789 27.4736 24.2947 27.6749 24.7017 28.0774C25.1087 28.4799 25.3122 29.0139 25.3122 29.6774V32.9411C25.3122 33.1244 25.2477 33.2799 25.1168 33.4074C24.9858 33.5369 24.8286 33.6007 24.6453 33.6007C24.4599 33.6007 24.3028 33.5369 24.1738 33.4074C24.0428 33.2779 23.9784 33.1224 23.9784 32.9411V29.9145C23.9784 29.5399 23.8615 29.233 23.6258 28.9919C23.39 28.7508 23.0979 28.6313 22.7432 28.6313C22.3906 28.6313 22.0964 28.7508 21.8607 28.9919C21.625 29.233 21.5081 29.5399 21.5081 29.9145V32.9411C21.5081 33.1244 21.4436 33.2799 21.3127 33.4074C21.1817 33.5369 21.0245 33.6007 20.8412 33.6007C20.6558 33.6007 20.4986 33.5369 20.3697 33.4074C20.2387 33.2799 20.1742 33.1244 20.1742 32.9411Z" fill="white"/>
<path id="Vector_2" d="M27.6292 32.718C27.0086 32.1282 26.6963 31.4029 26.6963 30.5381C26.6963 29.6754 27.0066 28.9481 27.6292 28.3583C28.2498 27.7685 29.0154 27.4736 29.9221 27.4736C30.8288 27.4736 31.5925 27.7685 32.2151 28.3583C32.8357 28.9481 33.148 29.6754 33.148 30.5381C33.148 31.4009 32.8377 32.1282 32.2151 32.718C31.5945 33.3077 30.8288 33.6026 29.9221 33.6026C29.0154 33.6026 28.2498 33.3077 27.6292 32.718ZM28.5742 29.2191C28.2135 29.5678 28.0322 30.0081 28.0322 30.5401C28.0322 31.0721 28.2135 31.5125 28.5742 31.8612C28.9348 32.2099 29.3842 32.3852 29.9221 32.3852C30.4601 32.3852 30.9094 32.2099 31.2701 31.8612C31.6308 31.5125 31.8121 31.0721 31.8121 30.5401C31.8121 30.0081 31.6308 29.5678 31.2701 29.2191C30.9094 28.8704 30.4601 28.697 29.9221 28.697C29.3842 28.6951 28.9348 28.8704 28.5742 29.2191Z" fill="white"/>
<path id="Vector_3" d="M38.3969 32.9411V29.9145C38.3969 29.5399 38.28 29.233 38.0443 28.9919C37.8085 28.7508 37.5144 28.6313 37.1618 28.6313C36.8092 28.6313 36.515 28.7508 36.2792 28.9919C36.0435 29.233 35.9266 29.5399 35.9266 29.9145V32.9411C35.9266 33.1244 35.8622 33.2799 35.7312 33.4074C35.6002 33.5369 35.4431 33.6007 35.2597 33.6007C35.0743 33.6007 34.9172 33.5369 34.7882 33.4074C34.6573 33.2779 34.5928 33.1224 34.5928 32.9411V28.1332C34.5928 27.9498 34.6573 27.7944 34.7882 27.6669C34.9192 27.5374 35.0763 27.4736 35.2597 27.4736C35.4451 27.4736 35.6022 27.5374 35.7312 27.6669C35.8622 27.7964 35.9266 27.9518 35.9266 28.1332V28.171C36.3719 27.7068 36.922 27.4736 37.5768 27.4736C37.9456 27.4736 38.2921 27.5573 38.6165 27.7227C38.9389 27.8881 39.1968 28.1212 39.3902 28.4201C39.9443 27.7885 40.6072 27.4736 41.381 27.4736C42.0015 27.4736 42.5174 27.6749 42.9244 28.0774C43.3314 28.4799 43.5349 29.0139 43.5349 29.6774V32.9411C43.5349 33.1244 43.4704 33.2799 43.3394 33.4074C43.2085 33.5369 43.0513 33.6007 42.8679 33.6007C42.6826 33.6007 42.5254 33.5369 42.3965 33.4074C42.2655 33.2779 42.201 33.1224 42.201 32.9411V29.9145C42.201 29.5399 42.0842 29.233 41.8484 28.9919C41.6127 28.7508 41.3205 28.6313 40.9659 28.6313C40.6133 28.6313 40.3191 28.7508 40.0834 28.9919C39.8476 29.233 39.7308 29.5399 39.7308 29.9145V32.9411C39.7308 33.1244 39.6663 33.2799 39.5353 33.4074C39.4043 33.5369 39.2472 33.6007 39.0638 33.6007C38.8785 33.6007 38.7213 33.5369 38.5923 33.4074C38.4634 33.2799 38.3969 33.1244 38.3969 32.9411Z" fill="white"/>
<path id="Vector_4" d="M47.0124 27.6234H47.9957C48.1629 27.6234 48.308 27.6832 48.4309 27.8047C48.5518 27.9243 48.6143 28.0677 48.6143 28.2351C48.6143 28.4005 48.5538 28.5439 48.4309 28.6655C48.31 28.785 48.1649 28.8468 47.9957 28.8468H47.0124V32.9414C47.0124 33.1247 46.9479 33.2802 46.817 33.4077C46.686 33.5372 46.5289 33.601 46.3455 33.601C46.1601 33.601 46.003 33.5372 45.874 33.4077C45.743 33.2782 45.6786 33.1228 45.6786 32.9414V28.8448H45.1869C45.0197 28.8448 44.8746 28.785 44.7517 28.6635C44.6308 28.5439 44.5684 28.4005 44.5684 28.2331C44.5684 28.0677 44.6288 27.9243 44.7517 27.8027C44.8726 27.6832 45.0177 27.6214 45.1869 27.6214H45.6786V26.4877C45.6786 26.3043 45.743 26.1489 45.874 26.0214C46.005 25.8919 46.1621 25.8281 46.3455 25.8281C46.5309 25.8281 46.688 25.8919 46.817 26.0214C46.9479 26.1509 47.0124 26.3063 47.0124 26.4877V27.6234Z" fill="white"/>
<path id="Vector_5" d="M54.4675 28.446V28.1352C54.4675 27.9518 54.532 27.7964 54.663 27.6689C54.7939 27.5394 54.9511 27.4756 55.1345 27.4756C55.3198 27.4756 55.477 27.5394 55.606 27.6689C55.7369 27.7984 55.8014 27.9538 55.8014 28.1352V32.9411C55.8014 33.1244 55.7369 33.2799 55.606 33.4074C55.475 33.5369 55.3178 33.6006 55.1345 33.6006C54.9491 33.6006 54.7919 33.5369 54.663 33.4074C54.532 33.2779 54.4675 33.1224 54.4675 32.9411V32.6303C53.9396 33.2779 53.2082 33.6026 52.2753 33.6026C51.4351 33.6026 50.7218 33.3077 50.1335 32.718C49.5451 32.1282 49.251 31.4029 49.251 30.5381C49.251 29.6754 49.5451 28.9481 50.1335 28.3583C50.7218 27.7685 51.4351 27.4736 52.2753 27.4736C53.2082 27.4736 53.9396 27.7984 54.4675 28.446ZM53.8631 31.895C54.2419 31.5205 54.4293 31.0681 54.4293 30.5381C54.4293 30.0061 54.2399 29.5558 53.8631 29.1872C53.4843 28.8186 53.0309 28.6333 52.503 28.6333C51.9751 28.6333 51.5197 28.8186 51.143 29.1872C50.7642 29.5558 50.5768 30.0081 50.5768 30.5381C50.5768 31.0701 50.7662 31.5205 51.143 31.8891C51.5218 32.2577 51.9751 32.443 52.503 32.443C53.0329 32.443 53.4863 32.2617 53.8631 31.895Z" fill="white"/>
<path id="Vector_6" d="M57.0508 33.2161C57.0508 33.1663 57.0669 33.1125 57.1012 33.0547L59.519 28.8445H57.9454C57.7782 28.8445 57.6331 28.7847 57.5102 28.6632C57.3893 28.5436 57.3268 28.4002 57.3268 28.2328C57.3268 28.0674 57.3873 27.924 57.5102 27.8024C57.6311 27.6829 57.7761 27.6211 57.9454 27.6211H61.3324C61.3989 27.6211 61.4574 27.645 61.5097 27.6968C61.5601 27.7466 61.5863 27.8044 61.5863 27.8722C61.5863 27.922 61.5742 27.9678 61.548 28.0096L59.0536 32.2318H61.2579C61.4251 32.2318 61.5702 32.2916 61.6931 32.4131C61.814 32.5327 61.8765 32.6761 61.8765 32.8435C61.8765 33.0089 61.816 33.1523 61.6931 33.2739C61.5722 33.3934 61.4271 33.4552 61.2579 33.4552H57.3026C57.1334 33.4532 57.0508 33.3735 57.0508 33.2161Z" fill="white"/>
</g>
<g id="Group_2">
<path id="Vector_7" d="M40.4136 19.5811C40.4077 19.5849 40.4018 19.5888 40.3979 19.5946C40.4038 19.5888 40.4077 19.5849 40.4136 19.5811Z" fill="white"/>
<path id="Vector_8" d="M48.3285 20.4934C48.3325 20.4894 48.3366 20.4854 48.3406 20.4814C48.3245 20.4934 48.3003 20.5153 48.2681 20.5432C48.2701 20.5412 48.2721 20.5412 48.2741 20.5392C48.2943 20.5233 48.3124 20.5093 48.3285 20.4934Z" fill="white"/>
<path id="Vector_9" d="M36.4949 20.2429C36.4868 20.2289 36.4788 20.219 36.4707 20.207C36.4767 20.215 36.4808 20.225 36.4868 20.2329C36.4888 20.2369 36.4929 20.2389 36.4949 20.2429Z" fill="white"/>
<path id="Vector_10" d="M11.1316 15.0438C11.1034 14.5039 10.6722 13.9838 10.0858 14.0097C9.54382 14.0336 9.00987 14.466 9.0401 15.0438C9.06831 15.5858 9.08241 16.1298 9.09047 16.6737C9.11062 17.8991 9.09651 19.1265 9.02599 20.3519C8.98569 21.0772 8.92323 21.8025 8.83055 22.5218C8.71973 23.2929 8.57264 24.074 8.28854 24.8032C8.20392 24.9845 8.10922 25.1579 7.99638 25.3253C7.9581 25.3691 7.91982 25.4129 7.8775 25.4548C7.80295 25.5305 7.72034 25.5963 7.64176 25.666C7.62766 25.676 7.61355 25.6859 7.59945 25.6959C7.54101 25.7337 7.48057 25.7716 7.42012 25.8055C7.34759 25.8473 7.27505 25.8832 7.2005 25.919C7.00707 25.9908 6.80759 26.0446 6.60409 26.0804C6.38245 26.1004 6.1588 26.0984 5.93514 26.0764C5.68328 26.0525 5.36694 26.2099 5.19568 26.3793C5.01434 26.5586 4.87732 26.8535 4.88941 27.1106C4.9015 27.3776 4.99016 27.6545 5.19568 27.8418C5.41127 28.0371 5.645 28.1168 5.93514 28.1447C7.54303 28.3041 9.27987 27.4632 10.0173 26.0147C10.4787 25.1081 10.6943 24.1038 10.8414 23.1056C11.1618 20.9278 11.2182 18.72 11.1779 16.5223C11.1698 16.0301 11.1578 15.536 11.1316 15.0438Z" fill="white"/>
<path id="Vector_11" d="M65.9908 16.704C65.8558 15.7755 65.3621 14.9506 64.5804 14.4166C63.8086 13.8906 62.8355 13.8447 61.9408 13.9802C61.0462 14.1177 60.1637 14.5341 59.4444 15.0701C58.7049 15.6201 58.0843 16.2636 57.5 16.969C56.96 17.6206 56.4462 18.294 55.8498 18.8978C55.7027 19.0472 55.5516 19.1907 55.3965 19.3282C55.3179 19.3979 55.2373 19.4656 55.1567 19.5314C55.1365 19.5473 55.1184 19.5633 55.0983 19.5772C55.1325 19.5513 55.1627 19.5274 55.1567 19.5334C55.1386 19.5553 55.1083 19.5712 55.0821 19.5892C55.068 19.5991 55.0559 19.6111 55.0418 19.6211C54.9975 19.6569 55.0358 19.625 55.0821 19.5892C55.0761 19.5932 55.07 19.5971 55.066 19.5991C54.8283 19.7705 54.5744 19.9179 54.3125 20.0494C54.2036 20.1032 54.0928 20.1531 53.982 20.2009C53.5387 20.3762 53.0793 20.5077 52.6099 20.5815C52.3661 20.6054 52.1202 20.6093 51.8744 20.5854C51.7535 20.5615 51.6367 20.5296 51.5198 20.4898C51.4614 20.4619 51.405 20.43 51.3506 20.3961C51.3364 20.3862 51.3223 20.3782 51.3082 20.3683C51.2841 20.3443 51.2619 20.3224 51.2579 20.3184C51.2317 20.2925 51.2055 20.2646 51.1813 20.2367C51.1954 20.2567 51.2095 20.2766 51.2256 20.3045C51.2095 20.2786 51.1914 20.2547 51.1732 20.2308C51.1732 20.2308 51.1732 20.2288 51.1712 20.2288C51.1612 20.2168 51.1491 20.2049 51.139 20.1929C51.0927 20.1391 51.0604 20.0654 51.1571 20.2029C51.1128 20.1331 51.0725 20.0594 51.0362 19.9857C51.0342 19.9817 51.0342 19.9777 51.0322 19.9737C51.0322 19.9737 51.0322 19.9737 51.0322 19.9717C51.0584 19.894 51.0866 19.8163 51.1088 19.7366C51.3888 18.7603 51.4573 17.7023 51.3123 16.7C51.1773 15.7715 50.6836 14.9466 49.9018 14.4126C49.1301 13.8866 48.1569 13.8407 47.2623 13.9762C46.3677 14.1137 45.4852 14.5302 44.7659 15.0661C44.0264 15.6161 43.4058 16.2597 42.8215 16.965C42.2815 17.6166 41.7677 18.29 41.1713 18.8938C41.0242 19.0432 40.8731 19.1867 40.718 19.3242C40.6394 19.3939 40.5588 19.4617 40.4782 19.5274C40.4601 19.5433 40.4399 19.5573 40.4198 19.5732C40.454 19.5473 40.4842 19.5234 40.4782 19.5294C40.4601 19.5513 40.4298 19.5673 40.4036 19.5852C40.3895 19.5952 40.3774 19.6071 40.3633 19.6171C40.319 19.6529 40.3573 19.6211 40.4036 19.5852C40.3976 19.5892 40.3915 19.5932 40.3875 19.5952C40.1498 19.7665 39.8959 19.914 39.6339 20.0455C39.5251 20.0993 39.4143 20.1491 39.3035 20.1969C38.8602 20.3722 38.4008 20.5037 37.9314 20.5775C37.6876 20.6014 37.4417 20.6054 37.1959 20.5815C37.075 20.5575 36.9582 20.5257 36.8413 20.4858C36.7829 20.4579 36.7264 20.426 36.672 20.3922C36.6579 20.3822 36.6438 20.3742 36.6297 20.3643C36.6056 20.3404 36.5834 20.3184 36.5794 20.3145C36.5532 20.2886 36.527 20.2607 36.5028 20.2328C36.5169 20.2527 36.531 20.2726 36.5471 20.3005C36.531 20.2746 36.5129 20.2507 36.4947 20.2268C36.4947 20.2268 36.4947 20.2248 36.4927 20.2248C36.4826 20.2128 36.4706 20.2009 36.4605 20.1889C36.4141 20.1351 36.3819 20.0614 36.4786 20.1989C36.4423 20.1431 36.4081 20.0853 36.3779 20.0255C36.3335 19.904 36.2993 19.7785 36.2731 19.6509C36.263 19.4816 36.2691 19.3142 36.2852 19.1448C36.3477 18.7583 36.4464 18.3797 36.5169 17.9952C36.6257 17.4074 36.6579 16.8714 36.5612 16.2796C36.5451 16.176 36.4907 16.0704 36.4182 15.9727C36.3557 15.8771 36.2751 15.7954 36.1764 15.7257C36.1441 15.7018 36.1119 15.6798 36.0817 15.6619C35.858 15.5324 35.5276 15.4766 35.2757 15.5583C35.2435 15.5683 35.2133 15.5842 35.181 15.5962C34.9614 15.6699 34.766 15.8113 34.6511 16.0345C34.2602 16.7857 33.8572 17.5329 33.3938 18.2422C33.2729 18.4275 33.148 18.6108 33.019 18.7902C32.9586 18.8739 32.8981 18.9536 32.8357 19.0353C32.8014 19.0771 32.7672 19.1189 32.7329 19.1608C32.4649 19.4816 32.1748 19.7884 31.8524 20.0574C31.8222 20.0833 31.7859 20.1092 31.7537 20.1351C31.667 20.1969 31.5784 20.2567 31.4877 20.3105C31.387 20.3702 31.2822 20.426 31.1774 20.4758C30.7664 20.6253 30.3251 20.703 29.8919 20.7648C28.826 20.9022 27.7501 20.956 26.6762 20.9879C25.4249 21.0258 24.1716 21.0258 22.9204 21.0098C20.9539 20.9839 18.9913 20.8843 17.0248 20.8046C16.8374 20.7966 16.646 20.7966 16.4566 20.7867V20.7847H16.4506C16.4405 20.7428 16.4324 20.701 16.4244 20.6592C16.3941 20.4061 16.374 20.1531 16.3619 19.898C16.3498 19.6091 16.3478 19.3202 16.3498 19.0293C16.3518 18.7404 16.3579 18.4514 16.3639 18.1625C16.3659 18.0848 16.3659 18.0071 16.368 17.9294C16.3941 16.0086 16.4385 14.0878 16.4606 12.167C16.4808 10.5192 16.4888 8.87138 16.4909 7.22157C16.4909 6.6816 16.0093 6.16155 15.4451 6.18745C14.8789 6.21336 14.3994 6.64175 14.3994 7.22157C14.3994 9.44921 14.3813 11.6769 14.345 13.9065C14.3228 15.3252 14.2886 16.7438 14.2725 18.1625C14.2644 18.9456 14.2443 19.7346 14.3168 20.5157C14.3752 21.1533 14.476 21.761 14.9051 22.2651C15.2537 22.6736 15.7736 22.7951 16.2853 22.841C16.777 22.8848 17.2787 22.8848 17.7723 22.9087C19.2734 22.9844 20.7765 23.0362 22.2797 23.0641C24.0165 23.096 25.7553 23.1 27.4902 23.0223C28.2337 22.9884 28.9752 22.9406 29.7146 22.8529C30.3473 22.7772 30.9961 22.6995 31.6066 22.5102C32.473 22.2392 33.2185 21.6873 33.8371 21.0397C34.0104 20.8604 34.1736 20.6711 34.3307 20.4798C34.4738 20.9401 34.7136 21.3685 35.0521 21.7272C35.9447 22.6676 37.3027 22.7633 38.5137 22.57C39.0013 22.4923 39.4768 22.3488 39.9321 22.1635C40.4278 21.9623 40.9154 21.7411 41.3567 21.4402C42.4326 20.705 43.2446 19.7167 44.0586 18.7184C44.4878 18.1924 44.923 17.6684 45.4207 17.2021C45.5477 17.0846 45.6766 16.969 45.8116 16.8594C45.8297 16.8455 45.8479 16.8315 45.864 16.8176C45.9265 16.7717 45.9909 16.7259 46.0554 16.6821C46.3133 16.5087 46.5873 16.3573 46.8714 16.2278C47.1636 16.1142 47.4638 16.0285 47.7741 15.9767C47.9353 15.9628 48.0985 15.9608 48.2597 15.9707C48.3907 15.9947 48.5196 16.0285 48.6446 16.0744C48.703 16.1042 48.7594 16.1361 48.8138 16.172C48.8501 16.2039 48.8884 16.2358 48.9226 16.2716C48.9488 16.2975 48.971 16.3254 48.9951 16.3533C49.0012 16.3613 49.0052 16.3693 49.0113 16.3772C49.0596 16.4509 49.1019 16.5287 49.1402 16.6084C49.1966 16.7638 49.2389 16.9232 49.2692 17.0866C49.3175 17.5448 49.2994 18.0111 49.247 18.4674C49.1845 18.8639 49.0838 19.2544 48.9387 19.631C48.8763 19.7665 48.8078 19.898 48.7292 20.0255C48.6889 20.0893 48.6446 20.1511 48.6022 20.2148C48.5781 20.2427 48.5519 20.2726 48.5277 20.3005C48.4713 20.3623 48.4108 20.4201 48.3504 20.4758C48.4169 20.4221 48.3504 20.4898 48.296 20.5257C48.2919 20.5277 48.2879 20.5296 48.2839 20.5336C48.2637 20.5496 48.2436 20.5655 48.2254 20.5834C48.2456 20.5655 48.2617 20.5516 48.2778 20.5376C48.1872 20.5994 48.0905 20.6512 47.9937 20.699C47.8567 20.7468 47.7177 20.7847 47.5746 20.8106C47.4578 20.8186 47.3409 20.8186 47.224 20.8106C47.0689 20.7827 46.9178 20.7428 46.7707 20.689C46.6982 20.6532 46.6256 20.6133 46.5571 20.5695C46.545 20.5615 46.5269 20.5496 46.5067 20.5356C46.4745 20.5077 46.4362 20.4758 46.4221 20.4619C46.3758 20.4181 46.3315 20.3722 46.2891 20.3264C46.2871 20.3244 46.2851 20.3224 46.2831 20.3204C46.2065 20.2009 46.136 20.0833 46.0776 19.9538C45.9768 19.7326 45.6786 19.5414 45.453 19.4796C45.2031 19.4118 44.8686 19.4417 44.647 19.5832C44.4233 19.7247 44.2279 19.9379 44.1675 20.2009C44.101 20.4878 44.1513 20.7309 44.2722 20.9979C45.1044 22.829 47.6653 23.4248 49.3155 22.3349C49.523 22.1974 49.7124 22.04 49.8857 21.8706C49.9079 21.8885 49.928 21.9105 49.9502 21.9284C50.3693 22.2592 50.8468 22.5042 51.3808 22.5939C52.3842 22.7633 53.4118 22.6158 54.3628 22.2691C55.3441 21.9105 56.1984 21.4123 56.9701 20.711C57.766 19.9877 58.4047 19.1229 59.0898 18.304C59.4686 17.8517 59.8655 17.4113 60.3128 17.0208C60.3652 16.975 60.4196 16.9292 60.474 16.8833C60.4901 16.8694 60.5062 16.8554 60.5244 16.8435C60.6332 16.7638 60.744 16.6841 60.8588 16.6123C61.0906 16.4649 61.3344 16.3394 61.5842 16.2258C61.8663 16.1182 62.1584 16.0365 62.4567 15.9847C62.6178 15.9707 62.7811 15.9688 62.9422 15.9787C63.0732 16.0026 63.2022 16.0365 63.3271 16.0823C63.3855 16.1122 63.4419 16.1441 63.4963 16.18C63.5326 16.2118 63.5709 16.2437 63.6051 16.2796C63.6313 16.3055 63.6535 16.3334 63.6777 16.3613C63.6837 16.3693 63.6878 16.3772 63.6938 16.3852C63.7422 16.4589 63.7845 16.5366 63.8228 16.6163C63.8792 16.7717 63.9215 16.9311 63.9517 17.0925C64.0001 17.5508 63.9819 18.0171 63.9295 18.4734C63.8671 18.8699 63.7663 19.2604 63.6213 19.637C63.5588 19.7725 63.4903 19.904 63.4117 20.0315C63.3714 20.0953 63.3271 20.157 63.2848 20.2208C63.2606 20.2487 63.2344 20.2786 63.2102 20.3065C63.1538 20.3683 63.0934 20.426 63.0329 20.4818C63.0994 20.428 63.0329 20.4958 62.9785 20.5316C62.9745 20.5336 62.9705 20.5356 62.9664 20.5396C62.9463 20.5555 62.9261 20.5715 62.908 20.5894C62.9281 20.5715 62.9443 20.5575 62.9604 20.5436C62.8697 20.6054 62.773 20.6572 62.6763 20.705C62.5393 20.7528 62.4002 20.7907 62.2572 20.8166C62.1403 20.8245 62.0235 20.8245 61.9066 20.8166C61.7514 20.7887 61.6003 20.7488 61.4532 20.695C61.3807 20.6592 61.3082 20.6193 61.2397 20.5755C61.2276 20.5675 61.2094 20.5556 61.1893 20.5416C61.1571 20.5137 61.1188 20.4818 61.1047 20.4679C61.0583 20.424 61.014 20.3782 60.9717 20.3324C60.9697 20.3304 60.9676 20.3284 60.9656 20.3264C60.8891 20.2069 60.8185 20.0893 60.7601 19.9598C60.6594 19.7386 60.3612 19.5473 60.1355 19.4856C59.8856 19.4178 59.5512 19.4477 59.3295 19.5892C59.1059 19.7306 58.9104 19.9438 58.85 20.2069C58.7835 20.4938 58.8339 20.7369 58.9548 21.0039C59.7869 22.835 62.3478 23.4308 63.998 22.3409C64.9168 21.7331 65.4971 20.7787 65.7933 19.7406C66.0673 18.7663 66.1359 17.7082 65.9908 16.704ZM36.6398 20.3922C36.6781 20.4201 36.7164 20.446 36.7123 20.448C36.7063 20.4519 36.6741 20.424 36.6398 20.3922ZM51.3244 20.3922C51.3626 20.4201 51.4009 20.446 51.3969 20.448C51.3909 20.4519 51.3566 20.424 51.3244 20.3922Z" fill="white"/>
<path id="Vector_12" d="M63.0131 20.4934C63.0171 20.4894 63.0211 20.4854 63.0252 20.4814C63.0091 20.4934 62.9849 20.5153 62.9526 20.5432C62.9547 20.5412 62.9567 20.5412 62.9587 20.5392C62.9768 20.5233 62.9949 20.5093 63.0131 20.4934Z" fill="white"/>
<path id="Vector_13" d="M51.1775 20.2429C51.1694 20.2289 51.1614 20.217 51.1533 20.207C51.1594 20.215 51.1634 20.225 51.1694 20.2329C51.1735 20.2369 51.1755 20.2389 51.1775 20.2429Z" fill="white"/>
<path id="Vector_14" d="M55.0962 19.5811C55.0903 19.5849 55.0864 19.5888 55.0806 19.5926C55.0864 19.5888 55.0923 19.5849 55.0962 19.5811Z" fill="white"/>
<path id="Vector_15" d="M9.87805 12.1036C10.7071 12.1036 11.3791 11.439 11.3791 10.6192C11.3791 9.79937 10.7071 9.13477 9.87805 9.13477C9.04902 9.13477 8.37695 9.79937 8.37695 10.6192C8.37695 11.439 9.04902 12.1036 9.87805 12.1036Z" fill="white"/>
<path id="Vector_16" d="M22.8786 13.3581C23.0075 13.3581 23.1305 13.3402 23.2473 13.3103L23.2534 13.3282C23.2534 13.3282 26.0319 13.1429 27.6478 13.3581V13.3541C27.6801 13.3561 27.7103 13.3581 27.7425 13.3581C28.4014 13.3581 28.9333 12.8301 28.9333 12.1805C28.9333 11.529 28.3994 11.0029 27.7425 11.0029C27.6418 11.0029 27.5431 11.0169 27.4504 11.0408C26.8862 11.0727 24.4623 11.1942 22.9773 11.0029V11.0069C22.9451 11.0049 22.9108 11.0029 22.8786 11.0029C22.1552 11.0029 21.5669 11.5309 21.5669 12.1805C21.5669 12.8321 22.1552 13.3581 22.8786 13.3581Z" fill="white"/>
</g>
</g>
<g id="Group 2">
<g id="Group_3">
<g id="Group_4">
<path id="Vector_17" d="M89.792 13.2526C89.569 12.0633 89.3379 10.8342 89.1791 9.44964C89.1189 8.91774 88.6366 8.53525 88.1001 8.59502C87.5636 8.65478 87.1778 9.13488 87.2381 9.66478C87.4028 11.117 87.64 12.382 87.871 13.6052C88.2287 15.5117 88.5683 17.3125 88.5582 19.5278C88.5462 22.3645 88.3071 25.5938 86.6333 28.0241C85.0659 30.3011 81.8429 31.3988 78.8569 31.3988C77.6754 31.3988 76.5301 31.2275 75.5414 30.8868C74.5026 30.5302 73.6767 29.9127 73.2146 29.1477C73.0619 28.8967 72.9433 28.6238 72.8509 28.317C72.6881 27.7751 72.6298 27.1934 72.6037 26.5799C73.5079 27.2691 74.6131 27.552 75.654 27.3568C78.3867 26.8408 80.0465 24.2351 79.9862 20.5557C79.9279 17.0077 78.1999 12.9777 75.1134 12.4996C74.9647 12.4757 73.6305 12.3023 72.4189 13.2765C71.3619 14.1271 70.7752 15.5415 70.6747 17.4819C70.6466 18.0157 71.0625 18.4719 71.601 18.4978C72.1396 18.5257 72.5997 18.1134 72.6258 17.5795C72.6941 16.2487 73.0398 15.2865 73.6265 14.7985C74.1751 14.3403 74.798 14.412 74.81 14.412C76.506 14.675 77.9828 17.5038 78.0331 20.5876C78.0492 21.6055 77.9005 24.9623 75.2883 25.4543C74.7859 25.5499 74.2092 25.3826 73.7451 25.0081C72.9835 24.3945 72.5334 23.259 72.4691 21.7968C72.4671 21.7231 72.4651 21.6474 72.4631 21.5737C72.447 21.0418 71.9969 20.6174 71.4624 20.6354C70.9259 20.6473 70.4999 21.0876 70.5099 21.6215C70.5119 21.7091 70.514 21.7948 70.518 21.8805C70.53 22.249 70.5421 22.6155 70.5541 22.9841C70.5783 23.6873 70.6004 24.3905 70.6184 25.0937C70.6245 25.291 70.6265 25.4902 70.6285 25.6894C70.6426 26.7313 70.6586 27.809 70.9781 28.8728C70.9781 28.8728 70.9781 28.8728 70.9781 28.8748C71.1168 29.3389 71.2996 29.7553 71.5367 30.1458C72.234 31.3012 73.4296 32.2156 74.9025 32.7196C76.092 33.128 77.4463 33.3351 78.8429 33.3331C82.4296 33.3331 86.2836 31.9646 88.2448 29.1178C90.216 26.2551 90.4953 22.6693 90.5094 19.5377C90.5234 17.1392 90.1678 15.2527 89.792 13.2526Z" fill="white"/>
</g>
<g id="Group_5">
<path id="Vector_18" d="M81.2398 20.9064C81.1836 21.4383 81.5734 21.9144 82.1099 21.9702C82.1441 21.9741 82.1782 21.9761 82.2124 21.9761C82.7067 21.9761 83.1307 21.6056 83.1829 21.1096C83.9907 13.4638 77.7375 5.17661 77.4702 4.82799C77.1447 4.40168 76.5318 4.31801 76.1018 4.64074C75.6718 4.96346 75.5874 5.57105 75.9129 5.99737C75.9732 6.07506 81.9672 14.0276 81.2398 20.9064Z" fill="white"/>
</g>
<g id="Group_6">
<path id="Vector_19" d="M84.7703 20.7471C84.7361 21.281 85.144 21.7411 85.6825 21.775C85.7026 21.777 85.7247 21.777 85.7448 21.777C86.2552 21.777 86.6852 21.3826 86.7194 20.8706C87.0851 15.1532 84.0147 7.40985 83.8841 7.08315C83.6852 6.58512 83.1165 6.34208 82.6162 6.54129C82.1138 6.73851 81.8687 7.30228 82.0676 7.79832C82.0998 7.87402 85.1078 15.468 84.7703 20.7471Z" fill="white"/>
</g>
</g>
<g id="Group_7">
<g id="Group_8">
<path id="Vector_20" d="M87.7778 34.7244C87.3648 34.3115 87.1572 33.812 87.1572 33.228C87.1572 32.6439 87.3648 32.1445 87.7778 31.7316C88.1909 31.3188 88.6906 31.1113 89.2749 31.1113C89.8592 31.1113 90.3589 31.3188 90.7719 31.7316C91.185 32.1445 91.3925 32.6439 91.3925 33.228C91.3925 33.812 91.185 34.3115 90.7719 34.7244C90.3589 35.1372 89.8592 35.3447 89.2749 35.3447C88.6906 35.3447 88.1909 35.1372 87.7778 34.7244ZM88.0055 31.9471C87.6589 32.2975 87.4856 32.7245 87.4856 33.228C87.4856 33.7315 87.6609 34.1584 88.0095 34.5109C88.3581 34.8633 88.7812 35.0406 89.2769 35.0406C89.7726 35.0406 90.1937 34.8633 90.5443 34.5109C90.8928 34.1584 91.0681 33.7295 91.0681 33.228C91.0681 32.7245 90.8928 32.2975 90.5443 31.9451C90.1957 31.5927 89.7726 31.4154 89.2769 31.4154C88.7792 31.4154 88.3561 31.5927 88.0055 31.9471ZM89.7907 33.2965L90.3287 34.0215C90.3569 34.0678 90.369 34.1141 90.369 34.1564C90.369 34.2229 90.3468 34.2793 90.3025 34.3236C90.2581 34.3679 90.2017 34.39 90.1352 34.39C90.0526 34.39 89.9841 34.3478 89.9257 34.2612L89.2003 33.1676C89.1842 33.1434 89.1761 33.1273 89.1761 33.1152C89.1761 33.0729 89.1983 33.0508 89.2406 33.0508H89.3394C89.4441 33.0508 89.5308 33.0266 89.5993 32.9803C89.6678 32.934 89.702 32.8615 89.702 32.7648C89.702 32.5614 89.5832 32.4607 89.3454 32.4607H89.0875V34.1504C89.0875 34.2168 89.0633 34.2732 89.017 34.3196C88.9706 34.3659 88.9142 34.39 88.8477 34.39C88.7812 34.39 88.7248 34.3659 88.6785 34.3196C88.6321 34.2732 88.6079 34.2168 88.6079 34.1504V32.2794C88.6079 32.2291 88.6261 32.1868 88.6603 32.1505C88.6946 32.1163 88.7389 32.0982 88.7893 32.0982H89.3514C89.5892 32.0982 89.7826 32.1566 89.9297 32.2734C90.0788 32.3902 90.1514 32.5533 90.1514 32.7648C90.1534 33.0347 90.0325 33.2119 89.7907 33.2965Z" fill="white"/>
</g>
</g>
</g>
</g>
</svg>
